<svg width="85" height="25" viewBox="0 0 85 25" fill="none" xmlns="http://www.w3.org/2000/svg">
<path d="M3.504 7.144C3.504 6.232 3.672 5.416 4.056 4.672C4.392 3.952 4.896 3.328 5.544 2.8C6.168 2.296 6.936 1.912 7.848 1.624C8.736 1.36 9.72 1.216 10.824 1.216C11.88 1.216 12.888 1.36 13.8 1.624C14.688 1.912 15.456 2.296 16.104 2.8C16.728 3.328 17.232 3.952 17.616 4.672C17.952 5.416 18.144 6.232 18.144 7.144C18.144 7.96 18 8.68 17.736 9.328C17.448 10 17.04 10.6 16.536 11.08C16.008 11.608 15.408 12.016 14.688 12.352C13.968 12.688 13.152 12.928 12.288 13.024V17.632H21.168V18.76C21.168 19.144 21.072 19.432 20.904 19.672C20.712 19.888 20.424 20.008 20.064 20.008H1.536C1.152 20.008 0.888 19.888 0.72 19.672C0.528 19.432 0.432 19.144 0.432 18.76V17.632H9.336V13.024C8.448 12.928 7.656 12.688 6.96 12.352C6.24 12.016 5.616 11.608 5.112 11.08C4.584 10.6 4.2 10 3.936 9.328C3.648 8.68 3.504 7.96 3.504 7.144ZM15.192 7.144C15.192 5.92 14.784 5.008 14.016 4.408C13.224 3.832 12.168 3.544 10.824 3.544C9.48 3.544 8.4 3.832 7.632 4.408C6.84 5.008 6.456 5.92 6.456 7.144C6.456 8.392 6.84 9.328 7.632 9.904C8.4 10.504 9.48 10.792 10.824 10.792C12.168 10.792 13.224 10.504 14.016 9.904C14.784 9.328 15.192 8.392 15.192 7.144ZM22.0414 9.952H42.7774V11.08C42.7774 11.464 42.6814 11.776 42.5134 11.992C42.3214 12.232 42.0334 12.328 41.6734 12.328H23.1454C22.7614 12.328 22.4974 12.232 22.3294 11.992C22.1374 11.776 22.0414 11.464 22.0414 11.08V9.952ZM28.1854 4.048C28.1854 4.72 28.3294 5.176 28.6174 5.392C28.9054 5.632 29.3374 5.752 29.9614 5.752H39.8734V7.12C39.8734 7.552 39.7774 7.816 39.5854 7.96C39.3694 8.104 39.0574 8.176 38.6494 8.176H29.5054C28.0414 8.176 26.9614 7.888 26.2894 7.264C25.5694 6.664 25.2334 5.632 25.2334 4.192V0.831999H26.9374C27.3214 0.831999 27.6094 0.927999 27.8494 1.096C28.0654 1.288 28.1854 1.576 28.1854 1.936V4.048ZM40.9294 21.112C41.1214 21.112 41.2654 21.184 41.3614 21.328C41.4094 21.448 41.3854 21.592 41.2654 21.76C40.8814 22.216 40.3774 22.624 39.8014 22.984C39.1774 23.32 38.5054 23.608 37.7854 23.848C37.0174 24.064 36.2254 24.232 35.3854 24.352C34.5214 24.448 33.6574 24.52 32.7934 24.52C31.6654 24.52 30.6334 24.448 29.6974 24.304C28.7374 24.16 27.8974 23.92 27.2254 23.584C26.5054 23.224 25.9774 22.768 25.5934 22.216C25.1854 21.64 24.9934 20.968 24.9934 20.152V18.64C24.9934 18.424 25.0414 18.232 25.1614 18.088C25.2574 17.968 25.4494 17.896 25.7374 17.896H36.1294C36.3934 17.896 36.5854 17.872 36.7294 17.776C36.8494 17.728 36.9214 17.56 36.9214 17.296V16.432H26.2174C25.7854 16.432 25.4974 16.36 25.3054 16.216C25.0894 16.072 24.9934 15.808 24.9934 15.376V14.056H38.3614C38.9134 14.056 39.2974 14.176 39.5374 14.416C39.7534 14.68 39.8734 15.136 39.8734 15.76V18.208C39.8734 19.072 39.6334 19.624 39.2014 19.888C38.7214 20.128 38.0494 20.272 37.1614 20.272H27.9454V20.296C27.9454 20.56 28.0174 20.8 28.2094 21.04C28.3534 21.256 28.6414 21.448 29.0254 21.64C29.4094 21.808 29.9134 21.952 30.5374 22.048C31.1374 22.144 31.8814 22.192 32.7934 22.192C35.3374 22.192 37.0414 21.832 37.9054 21.112H40.9294ZM59.8268 22.96V0.519999H61.5308C61.9148 0.519999 62.2028 0.615999 62.4428 0.783998C62.6588 0.975999 62.7788 1.264 62.7788 1.624V21.856C62.7788 22.216 62.6588 22.504 62.4428 22.696C62.2028 22.864 61.9148 22.96 61.5308 22.96H59.8268ZM44.1308 15.472H58.8908V16.6C58.8908 16.984 58.7948 17.296 58.6268 17.512C58.4348 17.752 58.1468 17.848 57.7868 17.848H45.2348C44.8508 17.848 44.5868 17.752 44.4188 17.512C44.2268 17.296 44.1308 16.984 44.1308 16.6V15.472ZM57.0188 7.024C57.0188 7.936 56.8748 8.752 56.6108 9.472C56.3228 10.216 55.9148 10.84 55.4108 11.344C54.8828 11.872 54.2828 12.28 53.5628 12.544C52.8188 12.832 52.0028 12.976 51.1388 12.976C50.2508 12.976 49.4588 12.832 48.7388 12.544C48.0188 12.256 47.3948 11.848 46.8908 11.32C46.3628 10.816 45.9548 10.192 45.6908 9.448C45.4028 8.728 45.2588 7.936 45.2588 7.024C45.2588 6.136 45.4028 5.32 45.6908 4.576C45.9548 3.856 46.3628 3.232 46.8908 2.704C47.3948 2.2 48.0188 1.792 48.7388 1.504C49.4588 1.216 50.2508 1.072 51.1388 1.072C52.0028 1.072 52.8188 1.216 53.5628 1.48C54.2828 1.768 54.8828 2.176 55.4108 2.68C55.9148 3.208 56.3228 3.856 56.6108 4.576C56.8748 5.32 57.0188 6.136 57.0188 7.024ZM48.2108 7.024C48.2108 8.224 48.4748 9.136 49.0028 9.712C49.5308 10.312 50.2268 10.6 51.1388 10.6C52.0748 10.6 52.7948 10.312 53.3228 9.712C53.8028 9.136 54.0668 8.224 54.0668 7.024C54.0668 5.848 53.8028 4.96 53.3228 4.336C52.7948 3.76 52.0748 3.448 51.1388 3.448C50.2268 3.448 49.5308 3.76 49.0028 4.336C48.4748 4.936 48.2108 5.824 48.2108 7.024ZM70.7081 13.336H72.7001C73.0601 13.336 73.3241 13.432 73.4681 13.624C73.5881 13.816 73.6601 14.056 73.6601 14.296V16.432H80.7161V17.752C80.7161 18.184 80.6201 18.448 80.4281 18.592C80.2121 18.736 79.9001 18.808 79.4921 18.808H73.6601C73.6601 19.432 73.7561 19.984 73.9241 20.416C74.0681 20.848 74.3081 21.184 74.6441 21.448C74.9321 21.688 75.3401 21.88 75.8441 22C76.3241 22.096 76.8761 22.144 77.5481 22.144C78.2201 22.144 78.7961 22.072 79.3001 21.976C79.7801 21.856 80.1881 21.664 80.5241 21.4C80.8121 21.112 81.0521 20.752 81.2201 20.32C81.3641 19.84 81.4361 19.264 81.4361 18.592V0.519999H83.1401C83.5241 0.519999 83.8121 0.615999 84.0521 0.783998C84.2681 0.975999 84.3881 1.264 84.3881 1.624V18.664C84.3881 19.768 84.2201 20.68 83.9081 21.448C83.5721 22.192 83.1401 22.792 82.5641 23.272C81.9641 23.704 81.2441 24.04 80.4041 24.232C79.5401 24.424 78.6041 24.52 77.5481 24.52C76.4921 24.52 75.5321 24.424 74.6921 24.232C73.8281 24.04 73.1321 23.704 72.5561 23.272C71.9561 22.792 71.5001 22.192 71.1881 21.448C70.8521 20.68 70.7081 19.768 70.7081 18.664V13.336ZM67.4441 12.424C66.9881 12.616 66.6521 12.52 66.4361 12.136L65.6921 10.864C66.7001 10.432 67.5881 9.952 68.3801 9.424C69.1481 8.944 69.8681 8.392 70.5161 7.816C71.1401 7.24 71.6921 6.616 72.2201 5.92C72.7241 5.248 73.2041 4.504 73.6841 3.688H68.0921C67.6121 3.688 67.3001 3.616 67.1321 3.424C66.9401 3.256 66.8681 2.968 66.8681 2.584V1.312H75.4841C75.8681 1.312 76.2041 1.384 76.4921 1.504C76.7321 1.648 76.9241 1.84 77.0681 2.056C77.1881 2.296 77.2601 2.584 77.2601 2.872C77.2361 3.208 77.1641 3.544 77.0201 3.88C76.5881 4.864 75.9641 5.848 75.1961 6.856C75.8441 7.552 76.5401 8.176 77.3081 8.704C78.0521 9.28 78.8441 9.784 79.6601 10.24L78.8681 11.416C78.7241 11.608 78.5801 11.704 78.4121 11.752C78.2201 11.8 78.0041 11.776 77.7881 11.68C77.0921 11.392 76.3721 10.984 75.6041 10.48C74.8361 10 74.0681 9.448 73.3481 8.824C72.5321 9.544 71.6441 10.216 70.6841 10.816C69.6761 11.44 68.5961 11.992 67.4441 12.424Z" fill="#191A20"/>
</svg>
